<svg width="83" height="37" viewBox="0 0 83 37" fill="none" xmlns="http://www.w3.org/2000/svg">
<rect x="-3.05176e-05" width="82.305" height="36.58" rx="8" fill="#F6F6F6"/>
<path d="M20.4218 24.7V23.72C19.0638 23.51 17.9858 22.81 17.6358 21.788L19.1478 20.836C19.3438 21.326 20.3378 22.096 21.3458 22.096C22.1858 22.096 22.6338 21.858 22.6338 21.298C22.6338 20.584 21.5558 20.402 20.9118 20.192C20.2398 19.982 18.0978 19.464 18.0978 17.644C18.0978 16.286 19.1058 15.502 20.4218 15.278V14.312H22.1158V15.278C23.3618 15.502 24.4258 16.188 24.7898 16.958L23.3618 17.882C23.1098 17.42 22.1718 16.818 21.2898 16.818C20.5198 16.818 20.1698 17.112 20.1698 17.532C20.1698 18.246 21.2058 18.456 21.8778 18.68C22.5498 18.904 24.6918 19.436 24.6918 21.214C24.6918 22.67 23.6838 23.538 22.1158 23.748V24.7H20.4218ZM27.8571 24V16.552H25.8831V14.9H29.6631V24H27.8571ZM31.0023 24L30.9883 22.516L32.5703 21.144C33.7743 20.094 35.4963 18.652 35.4963 17.616C35.4963 16.958 35.0623 16.496 34.1523 16.496C33.2983 16.496 32.6963 17.07 32.5423 17.602L30.9183 16.846C31.1703 16.006 32.2483 14.76 34.1523 14.76C36.1403 14.76 37.3723 15.852 37.3723 17.504C37.3723 19.212 35.6223 20.724 34.7123 21.536L33.7883 22.348H37.3723V24H31.0023ZM38.5688 24L41.9988 16.552H38.2048V14.9H44.0988V16.104L40.4588 24H38.5688ZM45.87 24.084C45.324 24.084 44.932 23.692 44.932 23.146C44.932 22.614 45.324 22.236 45.87 22.236C46.402 22.236 46.794 22.614 46.794 23.146C46.794 23.692 46.402 24.084 45.87 24.084ZM51.5066 24.112C49.1546 24.112 47.6286 22.152 47.6286 19.45C47.6286 16.748 49.1546 14.788 51.5066 14.788C53.8726 14.788 55.4406 16.748 55.4406 19.45C55.4406 22.152 53.8726 24.112 51.5066 24.112ZM51.5066 22.348C52.6406 22.348 53.5786 21.34 53.5786 19.45C53.5786 17.546 52.6406 16.594 51.5066 16.594C50.3866 16.594 49.4346 17.546 49.4346 19.45C49.4346 21.34 50.3866 22.348 51.5066 22.348ZM60.4344 24.112C58.0824 24.112 56.5564 22.152 56.5564 19.45C56.5564 16.748 58.0824 14.788 60.4344 14.788C62.8004 14.788 64.3684 16.748 64.3684 19.45C64.3684 22.152 62.8004 24.112 60.4344 24.112ZM60.4344 22.348C61.5684 22.348 62.5064 21.34 62.5064 19.45C62.5064 17.546 61.5684 16.594 60.4344 16.594C59.3144 16.594 58.3624 17.546 58.3624 19.45C58.3624 21.34 59.3144 22.348 60.4344 22.348Z" fill="#3C4242"/>
</svg>
