<svg width="83" height="37" viewBox="0 0 83 37" fill="none" xmlns="http://www.w3.org/2000/svg">
<rect width="82.305" height="36.58" rx="8" fill="#F6F6F6"/>
<path d="M22.6367 24.7V23.72C21.2787 23.51 20.2007 22.81 19.8507 21.788L21.3627 20.836C21.5587 21.326 22.5527 22.096 23.5607 22.096C24.4007 22.096 24.8487 21.858 24.8487 21.298C24.8487 20.584 23.7707 20.402 23.1267 20.192C22.4547 19.982 20.3127 19.464 20.3127 17.644C20.3127 16.286 21.3207 15.502 22.6367 15.278V14.312H24.3307V15.278C25.5767 15.502 26.6407 16.188 27.0047 16.958L25.5767 17.882C25.3247 17.42 24.3867 16.818 23.5047 16.818C22.7347 16.818 22.3847 17.112 22.3847 17.532C22.3847 18.246 23.4207 18.456 24.0927 18.68C24.7647 18.904 26.9067 19.436 26.9067 21.214C26.9067 22.67 25.8987 23.538 24.3307 23.748V24.7H22.6367ZM28.602 24L32.032 16.552H28.238V14.9H34.132V16.104L30.492 24H28.602ZM36.5892 24L38.2132 21.424C36.4072 21.34 35.1052 19.926 35.1052 18.106C35.1052 16.258 36.4912 14.788 38.3812 14.788C40.2712 14.788 41.6712 16.258 41.6712 18.106C41.6712 18.904 41.3632 19.59 40.9852 20.178L38.5352 24H36.5892ZM38.3812 19.744C38.9132 19.744 39.3612 19.52 39.6412 19.142L39.6552 19.114C39.8512 18.848 39.9632 18.498 39.9632 18.106C39.9632 17.168 39.3052 16.496 38.3812 16.496C37.4712 16.496 36.8132 17.168 36.8132 18.106C36.8132 19.058 37.4712 19.744 38.3812 19.744ZM43.6552 24.084C43.1092 24.084 42.7172 23.692 42.7172 23.146C42.7172 22.614 43.1092 22.236 43.6552 22.236C44.1872 22.236 44.5792 22.614 44.5792 23.146C44.5792 23.692 44.1872 24.084 43.6552 24.084ZM49.2918 24.112C46.9398 24.112 45.4138 22.152 45.4138 19.45C45.4138 16.748 46.9398 14.788 49.2918 14.788C51.6578 14.788 53.2258 16.748 53.2258 19.45C53.2258 22.152 51.6578 24.112 49.2918 24.112ZM49.2918 22.348C50.4258 22.348 51.3638 21.34 51.3638 19.45C51.3638 17.546 50.4258 16.594 49.2918 16.594C48.1718 16.594 47.2198 17.546 47.2198 19.45C47.2198 21.34 48.1718 22.348 49.2918 22.348ZM58.2196 24.112C55.8676 24.112 54.3416 22.152 54.3416 19.45C54.3416 16.748 55.8676 14.788 58.2196 14.788C60.5856 14.788 62.1536 16.748 62.1536 19.45C62.1536 22.152 60.5856 24.112 58.2196 24.112ZM58.2196 22.348C59.3536 22.348 60.2916 21.34 60.2916 19.45C60.2916 17.546 59.3536 16.594 58.2196 16.594C57.0996 16.594 56.1476 17.546 56.1476 19.45C56.1476 21.34 57.0996 22.348 58.2196 22.348Z" fill="#3C4242"/>
</svg>
