<svg width="83" height="37" viewBox="0 0 83 37" fill="none" xmlns="http://www.w3.org/2000/svg">
<rect width="82.305" height="36.58" rx="8" fill="#F6F6F6"/>
<path d="M22.5351 24.7V23.72C21.1771 23.51 20.0991 22.81 19.7491 21.788L21.2611 20.836C21.4571 21.326 22.4511 22.096 23.4591 22.096C24.2991 22.096 24.7471 21.858 24.7471 21.298C24.7471 20.584 23.6691 20.402 23.0251 20.192C22.3531 19.982 20.2111 19.464 20.2111 17.644C20.2111 16.286 21.2191 15.502 22.5351 15.278V14.312H24.2291V15.278C25.4751 15.502 26.5391 16.188 26.9031 16.958L25.4751 17.882C25.2231 17.42 24.2851 16.818 23.4031 16.818C22.6331 16.818 22.2831 17.112 22.2831 17.532C22.2831 18.246 23.3191 18.456 23.9911 18.68C24.6631 18.904 26.8051 19.436 26.8051 21.214C26.8051 22.67 25.7971 23.538 24.2291 23.748V24.7H22.5351ZM31.3565 24.112C30.0125 24.112 28.7245 23.524 28.1645 22.712L29.2985 21.494C29.6485 21.914 30.4325 22.348 31.3565 22.348C32.3925 22.348 33.1345 21.83 33.1345 20.948C33.1345 20.038 32.3925 19.506 31.3565 19.506C30.8385 19.506 30.3905 19.562 29.7605 19.758L29.7745 18.456L32.1685 16.552H28.8085V14.9H34.7025V16.44L32.6585 18.204C33.8205 18.484 34.9405 19.268 34.9405 20.948C34.9405 23.202 33.1345 24.112 31.3565 24.112ZM39.4708 24.14C37.2308 24.14 36.1248 22.95 36.1248 21.368C36.1248 20.556 36.5588 19.744 37.4408 19.268C36.6428 18.778 36.2928 17.994 36.2928 17.252C36.2928 16.09 37.2308 14.76 39.4708 14.76C41.6828 14.76 42.6208 16.09 42.6208 17.252C42.6208 17.994 42.2708 18.778 41.4728 19.268C42.3408 19.758 42.7748 20.556 42.7748 21.368C42.7748 22.95 41.6828 24.14 39.4708 24.14ZM39.4708 18.652C40.5068 18.652 40.9548 18.036 40.9548 17.378C40.9548 16.748 40.5068 16.09 39.4708 16.09C38.4068 16.09 37.9448 16.748 37.9448 17.378C37.9448 18.036 38.4068 18.652 39.4708 18.652ZM39.4708 22.656C40.5068 22.656 41.0388 22.04 41.0388 21.284C41.0388 20.542 40.5068 19.912 39.4708 19.912C38.4068 19.912 37.8608 20.542 37.8608 21.284C37.8608 21.998 38.4068 22.656 39.4708 22.656ZM44.7568 24.084C44.2108 24.084 43.8188 23.692 43.8188 23.146C43.8188 22.614 44.2108 22.236 44.7568 22.236C45.2888 22.236 45.6808 22.614 45.6808 23.146C45.6808 23.692 45.2888 24.084 44.7568 24.084ZM50.3934 24.112C48.0414 24.112 46.5154 22.152 46.5154 19.45C46.5154 16.748 48.0414 14.788 50.3934 14.788C52.7594 14.788 54.3274 16.748 54.3274 19.45C54.3274 22.152 52.7594 24.112 50.3934 24.112ZM50.3934 22.348C51.5274 22.348 52.4654 21.34 52.4654 19.45C52.4654 17.546 51.5274 16.594 50.3934 16.594C49.2734 16.594 48.3214 17.546 48.3214 19.45C48.3214 21.34 49.2734 22.348 50.3934 22.348ZM59.3211 24.112C56.9691 24.112 55.4431 22.152 55.4431 19.45C55.4431 16.748 56.9691 14.788 59.3211 14.788C61.6871 14.788 63.2551 16.748 63.2551 19.45C63.2551 22.152 61.6871 24.112 59.3211 24.112ZM59.3211 22.348C60.4551 22.348 61.3931 21.34 61.3931 19.45C61.3931 17.546 60.4551 16.594 59.3211 16.594C58.2011 16.594 57.2491 17.546 57.2491 19.45C57.2491 21.34 58.2011 22.348 59.3211 22.348Z" fill="#3C4242"/>
</svg>
